<?xml version="1.0" encoding="UTF-8"?>
<svg xmlns="http://www.w3.org/2000/svg" width="42" height="42" viewBox="0 0 42 42" fill="none">
  <path fill-rule="evenodd" clip-rule="evenodd" d="M21.0476 0.340088C9.49887 0.340088 0.546875 8.7995 0.546875 20.2257C0.546875 26.2024 2.99631 31.367 6.98521 34.9342C7.32011 35.2339 7.52223 35.6538 7.53592 36.1031L7.64756 39.7498C7.68319 40.913 8.88473 41.6699 9.94916 41.1999L14.0182 39.4037C14.3631 39.2515 14.7497 39.2232 15.1132 39.3233C16.9831 39.8375 18.9731 40.1113 21.0475 40.1113C32.5961 40.1113 41.5482 31.6519 41.5482 20.2257C41.5482 8.79942 32.5962 0.340088 21.0476 0.340088Z" fill="url(#paint0_radial_1595_7480)"></path>
  <path fill-rule="evenodd" clip-rule="evenodd" d="M8.7325 26.041L14.7546 16.4868C15.7125 14.9669 17.7638 14.5885 19.2011 15.6664L23.9907 19.2587C24.4302 19.5884 25.0348 19.5865 25.4724 19.2544L31.9411 14.3452C32.8045 13.6899 33.9315 14.7232 33.3537 15.6402L27.3317 25.1944C26.3737 26.7142 24.3224 27.0927 22.8852 26.0147L18.0954 22.4224C17.656 22.0928 17.0513 22.0946 16.6137 22.4267L10.145 27.3359C9.28161 27.9911 8.15456 26.9579 8.7325 26.041Z" fill="white"></path>
  <defs>
    <radialGradient id="paint0_radial_1595_7480" cx="0" cy="0" r="1" gradientUnits="userSpaceOnUse" gradientTransform="translate(8.44284 40.8436) scale(44.653 44.653)">
      <stop stop-color="#0099FF"></stop>
      <stop offset="0.6098" stop-color="#A033FF"></stop>
      <stop offset="0.9348" stop-color="#FF5280"></stop>
      <stop offset="1" stop-color="#FF7061"></stop>
    </radialGradient>
  </defs>
</svg>
