<?xml version="1.0" encoding="UTF-8"?>
<svg xmlns="http://www.w3.org/2000/svg" width="51" height="51" viewBox="0 0 51 51" fill="none">
  <circle cx="25.8398" cy="25.3064" r="25" fill="#6B3FD6"></circle>
  <path d="M33.8109 36.4419C32.961 36.6168 32.1027 36.5502 31.1195 36.4919C22.3535 35.8837 15.2957 28.7947 14.6874 19.9729C14.4041 18.3485 14.7708 16.7824 15.6874 15.6744C16.5373 14.6498 17.7622 14.0917 19.2371 14.0583C19.5454 14.0583 19.8537 14.0917 20.137 14.1417C20.4286 14.2 20.6536 14.4499 20.7036 14.7664L21.8535 22.0304C21.9119 22.4136 21.7369 22.7885 21.4619 22.9385C20.9703 23.1467 20.587 23.5466 20.412 24.0464C20.2537 24.5045 20.2953 24.9794 20.5286 25.3959C21.6869 27.5284 23.6367 29.5027 25.7449 30.669C26.1532 30.9022 26.6282 30.9439 27.0781 30.8023C27.5614 30.644 27.9614 30.2774 28.1697 29.8193C28.3364 29.5027 28.7113 29.3278 29.0946 29.3861L36.4024 30.5524C36.719 30.6023 36.969 30.8356 37.019 31.1271C37.4356 33.3763 35.9691 35.8088 33.8109 36.4419Z" fill="white"></path>
</svg>
