<?xml version="1.0" encoding="UTF-8"?>
<svg xmlns="http://www.w3.org/2000/svg" width="51" height="51" viewBox="0 0 51 51" fill="none">
  <circle cx="25.8398" cy="25.3064" r="25" fill="#7400CF"></circle>
  <path d="M28.6176 12.6731H23.0621C17.6775 12.6731 13.3398 17.0454 13.3398 22.4731V26.6731C13.3398 30.4639 15.498 33.91 18.8954 35.5254V40.2208C18.8954 40.4577 19.1091 40.6731 19.3869 40.6731C19.4937 40.6731 19.6219 40.63 19.7074 40.5439L23.7245 36.4731H28.6176C34.0022 36.4731 38.3398 32.1008 38.3398 26.6731V22.4731C38.3398 17.0454 34.0022 12.6731 28.6176 12.6731ZM32.2715 31.0454L30.8826 32.4454C29.3869 33.91 25.5407 32.23 22.1433 28.7408C18.7458 25.2516 17.2287 21.31 18.6604 19.8454L20.0492 18.4454C20.6048 17.9285 21.4809 17.95 22.0364 18.4885L24.045 20.5992C24.5578 21.1592 24.5578 21.9992 24.0022 22.5592C23.8527 22.71 23.6817 22.7962 23.4894 22.8823C22.7843 23.0977 22.421 23.7869 22.592 24.4977C22.9339 26.0485 24.8783 27.9869 26.3527 28.3746C27.0364 28.5469 27.7416 28.1593 27.9766 27.4916C28.2116 26.8023 28.9809 26.4146 29.7074 26.6516C29.921 26.7162 30.092 26.8669 30.2629 26.9962L32.2715 29.1069C32.7843 29.6239 32.7843 30.4854 32.2715 31.0454ZM27.0792 19.3285C26.9296 19.3285 26.8014 19.3285 26.6732 19.3716C26.4381 19.4146 26.1817 19.2208 26.1604 18.9408C26.139 18.6608 26.3099 18.4454 26.5663 18.4239C26.7373 18.3808 26.9082 18.3808 27.0792 18.3808C29.6433 18.3808 31.6945 20.4916 31.7373 23.0331C31.7373 23.2054 31.7373 23.3777 31.6945 23.55C31.6518 23.7869 31.4595 24.0023 31.1817 23.9592C30.9039 23.9162 30.733 23.7223 30.7757 23.4423C30.7757 23.2916 30.8185 23.1623 30.8185 23.0331C30.7971 21.0085 29.1304 19.3285 27.0792 19.3285ZM29.8569 23.0762C29.8142 23.3131 29.6219 23.5285 29.3441 23.4854C29.1304 23.4423 28.9381 23.27 28.9381 23.0762C28.9381 22.0639 28.1048 21.2239 27.1005 21.2239C26.8655 21.2669 26.6091 21.0516 26.5877 20.7931C26.545 20.5562 26.7586 20.2977 26.9937 20.2762H27.0578C28.6604 20.2762 29.8569 21.5254 29.8569 23.0762ZM33.4039 24.5623C33.3612 24.7992 33.1262 24.9716 32.8911 24.95C32.6561 24.9285 32.4851 24.67 32.5065 24.4331C32.5065 24.39 32.5065 24.39 32.5065 24.3685C32.6133 23.9593 32.6561 23.5285 32.6561 23.0762C32.6561 19.9962 30.1561 17.4762 27.1005 17.4762C26.951 17.4762 26.8227 17.4762 26.6945 17.4762C26.4595 17.5192 26.2031 17.3039 26.2031 17.0454C26.1604 16.8085 26.374 16.55 26.6091 16.55C26.78 16.55 26.951 16.5069 27.1005 16.5069C30.6689 16.5069 33.5963 19.4362 33.5963 23.0546C33.5749 23.55 33.5108 24.0885 33.4039 24.5623Z" fill="white"></path>
</svg>
