<?xml version="1.0" encoding="UTF-8"?>
<svg xmlns="http://www.w3.org/2000/svg" width="51" height="50" viewBox="0 0 51 50" fill="none">
  <path d="M0.839844 49.9209L5.07354 37.2207C2.92529 33.6074 1.68862 29.3907 1.68862 24.882C1.68862 11.5223 12.519 0.691895 25.8787 0.691895C39.2385 0.691895 50.0688 11.5223 50.0688 24.882C50.0688 38.2417 39.2385 49.0721 25.8787 49.0721C21.8139 49.0721 17.986 48.0646 14.624 46.2941L0.839844 49.9209Z" fill="#25D366"></path>
  <path d="M41.3102 32.9327C40.1932 30.8218 36.0741 28.4079 36.0741 28.4079C35.1421 27.8765 34.0175 27.8171 33.4862 28.7643C33.4862 28.7643 32.1476 30.3694 31.8073 30.6002C30.2523 31.6536 28.812 31.6128 27.358 30.1589L23.979 26.7799L20.6001 23.4009C19.1461 21.947 19.1054 20.5066 20.1587 18.9516C20.3896 18.6113 21.9946 17.2728 21.9946 17.2728C22.9418 16.7406 22.8824 15.6168 22.3511 14.6849C22.3511 14.6849 19.9372 10.5657 17.8263 9.44875C16.9282 8.97344 15.8257 9.1398 15.1076 9.85786L13.6155 11.35C8.88185 16.0836 11.2126 21.4275 15.9462 26.1612L20.2724 30.4874L24.5986 34.8136C29.3323 39.5472 34.6761 41.8779 39.4098 37.1443L40.9019 35.6522C41.62 34.9324 41.7855 33.8298 41.3102 32.9327Z" fill="white"></path>
</svg>
